<?xml version="1.0" encoding="UTF-8"?>

<svg xmlns="http://www.w3.org/2000/svg" viewBox="0 0 16 16">
  <path fill="#000" d="M2 2v12h12V2H2zm1.6 1.6h8.8v8.8H3.6V3.6zm2.45 6.55c-.46 0-.83-.16-1.1-.49-.27-.32-.41-.74-.41-1.27 0-.48.1-.92.31-1.31.21-.4.5-.71.86-.94.36-.23.78-.34 1.24-.34.46 0 .82.16 1.09.48.27.32.4.74.4 1.27 0 .49-.1.93-.31 1.32-.2.39-.49.7-.85.93-.36.23-.78.35-1.23.35zm.06-.66c.27 0 .51-.1.7-.3.2-.21.36-.48.46-.81.1-.34.16-.7.16-1.07 0-.34-.07-.6-.21-.78-.14-.18-.34-.27-.6-.27-.27 0-.51.1-.7.3-.2.2-.36.47-.46.8-.1.34-.16.7-.16 1.07 0 .34.07.6.21.78.14.18.34.28.6.28zm2.6.61V6.55h.7l.05.65c.16-.23.34-.41.55-.54.21-.13.43-.19.66-.19.07 0 .14 0 .2.02.07.01.12.03.16.04l-.16.74a1.06 1.06 0 0 0-.34-.05c-.27 0-.5.07-.7.21-.2.14-.36.34-.5.59l-.43 2.08h-.78z"></path>
</svg>